<mxfile host="Electron" modified="2024-06-13T12:11:16.299Z" agent="Mozilla/5.0 (Windows NT 10.0; Win64; x64) AppleWebKit/537.36 (KHTML, like Gecko) draw.io/24.1.0 Chrome/120.0.6099.109 Electron/28.1.0 Safari/537.36" etag="2VD1TG77Uz6nXgVlZb9f" version="24.1.0" type="device" pages="2">
  <diagram id="R2lEEEUBdFMjLlhIrx00" name="策略领域">
    <mxGraphModel dx="765" dy="536" grid="1" gridSize="10" guides="1" tooltips="1" connect="1" arrows="1" fold="1" page="1" pageScale="1" pageWidth="827" pageHeight="1169" background="#ffffff" math="0" shadow="0" extFonts="Permanent Marker^https://fonts.googleapis.com/css?family=Permanent+Marker">
      <root>
        <mxCell id="0" />
        <mxCell id="1" parent="0" />
        <mxCell id="9epuPhrRoqIMra7wH1eK-12" value="&lt;h3&gt;stratagy 策略总表&lt;/h3&gt;" style="swimlane;fontStyle=0;childLayout=stackLayout;horizontal=1;startSize=30;horizontalStack=0;resizeParent=1;resizeParentMax=0;resizeLast=0;collapsible=1;marginBottom=0;whiteSpace=wrap;html=1;fillColor=#ffe6cc;strokeColor=#d79b00;" parent="1" vertex="1">
          <mxGeometry x="70" y="600" width="180" height="180" as="geometry">
            <mxRectangle x="100" y="550" width="130" height="30" as="alternateBounds" />
          </mxGeometry>
        </mxCell>
        <mxCell id="9epuPhrRoqIMra7wH1eK-13" value="id 自增ID" style="text;strokeColor=#d6b656;fillColor=#fff2cc;align=left;verticalAlign=middle;spacingLeft=4;spacingRight=4;overflow=hidden;points=[[0,0.5],[1,0.5]];portConstraint=eastwest;rotatable=0;whiteSpace=wrap;html=1;" parent="9epuPhrRoqIMra7wH1eK-12" vertex="1">
          <mxGeometry y="30" width="180" height="30" as="geometry" />
        </mxCell>
        <mxCell id="9epuPhrRoqIMra7wH1eK-14" value="&lt;div&gt;&lt;span style=&quot;background-color: initial;&quot;&gt;strategy_id&amp;nbsp;&lt;/span&gt;&lt;span style=&quot;background-color: initial;&quot;&gt;策略抽奖ID&lt;/span&gt;&lt;/div&gt;" style="text;strokeColor=#d6b656;fillColor=#fff2cc;align=left;verticalAlign=middle;spacingLeft=4;spacingRight=4;overflow=hidden;points=[[0,0.5],[1,0.5]];portConstraint=eastwest;rotatable=0;whiteSpace=wrap;html=1;" parent="9epuPhrRoqIMra7wH1eK-12" vertex="1">
          <mxGeometry y="60" width="180" height="30" as="geometry" />
        </mxCell>
        <mxCell id="9epuPhrRoqIMra7wH1eK-15" value="strategy_desc 抽奖策略描述" style="text;strokeColor=#d6b656;fillColor=#fff2cc;align=left;verticalAlign=middle;spacingLeft=4;spacingRight=4;overflow=hidden;points=[[0,0.5],[1,0.5]];portConstraint=eastwest;rotatable=0;whiteSpace=wrap;html=1;" parent="9epuPhrRoqIMra7wH1eK-12" vertex="1">
          <mxGeometry y="90" width="180" height="30" as="geometry" />
        </mxCell>
        <mxCell id="wgxEwu4ZSYYzqAatA0k3-11" value="create_time 创建时间" style="text;strokeColor=#d6b656;fillColor=#fff2cc;align=left;verticalAlign=middle;spacingLeft=4;spacingRight=4;overflow=hidden;points=[[0,0.5],[1,0.5]];portConstraint=eastwest;rotatable=0;whiteSpace=wrap;html=1;" parent="9epuPhrRoqIMra7wH1eK-12" vertex="1">
          <mxGeometry y="120" width="180" height="30" as="geometry" />
        </mxCell>
        <mxCell id="wgxEwu4ZSYYzqAatA0k3-10" value="update_time 更新时间" style="text;strokeColor=#d6b656;fillColor=#fff2cc;align=left;verticalAlign=middle;spacingLeft=4;spacingRight=4;overflow=hidden;points=[[0,0.5],[1,0.5]];portConstraint=eastwest;rotatable=0;whiteSpace=wrap;html=1;" parent="9epuPhrRoqIMra7wH1eK-12" vertex="1">
          <mxGeometry y="150" width="180" height="30" as="geometry" />
        </mxCell>
        <mxCell id="wgxEwu4ZSYYzqAatA0k3-16" value="&lt;h3&gt;stratagy_award 策略奖品&lt;/h3&gt;" style="swimlane;fontStyle=0;childLayout=stackLayout;horizontal=1;startSize=30;horizontalStack=0;resizeParent=1;resizeParentMax=0;resizeLast=0;collapsible=1;marginBottom=0;whiteSpace=wrap;html=1;fillColor=#ffe6cc;strokeColor=#d79b00;" parent="1" vertex="1">
          <mxGeometry x="310" y="600" width="200" height="400" as="geometry">
            <mxRectangle x="284" y="550" width="130" height="30" as="alternateBounds" />
          </mxGeometry>
        </mxCell>
        <mxCell id="wgxEwu4ZSYYzqAatA0k3-17" value="id 自增ID" style="text;strokeColor=#d6b656;fillColor=#fff2cc;align=left;verticalAlign=middle;spacingLeft=4;spacingRight=4;overflow=hidden;points=[[0,0.5],[1,0.5]];portConstraint=eastwest;rotatable=0;whiteSpace=wrap;html=1;" parent="wgxEwu4ZSYYzqAatA0k3-16" vertex="1">
          <mxGeometry y="30" width="200" height="30" as="geometry" />
        </mxCell>
        <mxCell id="wgxEwu4ZSYYzqAatA0k3-18" value="&lt;div&gt;&lt;span style=&quot;background-color: initial;&quot;&gt;strategy_id&amp;nbsp;&lt;/span&gt;&lt;span style=&quot;background-color: initial;&quot;&gt;策略抽奖ID&lt;/span&gt;&lt;/div&gt;" style="text;strokeColor=#d6b656;fillColor=#fff2cc;align=left;verticalAlign=middle;spacingLeft=4;spacingRight=4;overflow=hidden;points=[[0,0.5],[1,0.5]];portConstraint=eastwest;rotatable=0;whiteSpace=wrap;html=1;" parent="wgxEwu4ZSYYzqAatA0k3-16" vertex="1">
          <mxGeometry y="60" width="200" height="30" as="geometry" />
        </mxCell>
        <mxCell id="wgxEwu4ZSYYzqAatA0k3-22" value="award_id 抽奖奖品ID-内部流转使用" style="text;strokeColor=#d6b656;fillColor=#fff2cc;align=left;verticalAlign=middle;spacingLeft=4;spacingRight=4;overflow=hidden;points=[[0,0.5],[1,0.5]];portConstraint=eastwest;rotatable=0;whiteSpace=wrap;html=1;" parent="wgxEwu4ZSYYzqAatA0k3-16" vertex="1">
          <mxGeometry y="90" width="200" height="30" as="geometry" />
        </mxCell>
        <mxCell id="wgxEwu4ZSYYzqAatA0k3-23" value="award_title 抽奖奖品标题" style="text;strokeColor=#d6b656;fillColor=#fff2cc;align=left;verticalAlign=middle;spacingLeft=4;spacingRight=4;overflow=hidden;points=[[0,0.5],[1,0.5]];portConstraint=eastwest;rotatable=0;whiteSpace=wrap;html=1;" parent="wgxEwu4ZSYYzqAatA0k3-16" vertex="1">
          <mxGeometry y="120" width="200" height="30" as="geometry" />
        </mxCell>
        <mxCell id="wgxEwu4ZSYYzqAatA0k3-24" value="award_subtitle 抽奖奖品副标题" style="text;strokeColor=#d6b656;fillColor=#fff2cc;align=left;verticalAlign=middle;spacingLeft=4;spacingRight=4;overflow=hidden;points=[[0,0.5],[1,0.5]];portConstraint=eastwest;rotatable=0;whiteSpace=wrap;html=1;" parent="wgxEwu4ZSYYzqAatA0k3-16" vertex="1">
          <mxGeometry y="150" width="200" height="30" as="geometry" />
        </mxCell>
        <mxCell id="wgxEwu4ZSYYzqAatA0k3-25" value="award_count 奖品库存总量" style="text;strokeColor=#d6b656;fillColor=#fff2cc;align=left;verticalAlign=middle;spacingLeft=4;spacingRight=4;overflow=hidden;points=[[0,0.5],[1,0.5]];portConstraint=eastwest;rotatable=0;whiteSpace=wrap;html=1;" parent="wgxEwu4ZSYYzqAatA0k3-16" vertex="1">
          <mxGeometry y="180" width="200" height="30" as="geometry" />
        </mxCell>
        <mxCell id="wgxEwu4ZSYYzqAatA0k3-26" value="award_count_surplus 奖品库存剩余" style="text;strokeColor=#d6b656;fillColor=#fff2cc;align=left;verticalAlign=middle;spacingLeft=4;spacingRight=4;overflow=hidden;points=[[0,0.5],[1,0.5]];portConstraint=eastwest;rotatable=0;whiteSpace=wrap;html=1;" parent="wgxEwu4ZSYYzqAatA0k3-16" vertex="1">
          <mxGeometry y="210" width="200" height="30" as="geometry" />
        </mxCell>
        <mxCell id="wgxEwu4ZSYYzqAatA0k3-27" value="award_rate 奖品中奖概率" style="text;strokeColor=#d6b656;fillColor=#fff2cc;align=left;verticalAlign=middle;spacingLeft=4;spacingRight=4;overflow=hidden;points=[[0,0.5],[1,0.5]];portConstraint=eastwest;rotatable=0;whiteSpace=wrap;html=1;" parent="wgxEwu4ZSYYzqAatA0k3-16" vertex="1">
          <mxGeometry y="240" width="200" height="30" as="geometry" />
        </mxCell>
        <mxCell id="4E-08I21KCYoqC6haHJX-2" value="rule_models 规则模型，rule配置的模型同步到此表，便于使用" style="text;strokeColor=#d6b656;fillColor=#fff2cc;align=left;verticalAlign=middle;spacingLeft=4;spacingRight=4;overflow=hidden;points=[[0,0.5],[1,0.5]];portConstraint=eastwest;rotatable=0;whiteSpace=wrap;html=1;" parent="wgxEwu4ZSYYzqAatA0k3-16" vertex="1">
          <mxGeometry y="270" width="200" height="40" as="geometry" />
        </mxCell>
        <mxCell id="4E-08I21KCYoqC6haHJX-3" value="sort 排序" style="text;strokeColor=#d6b656;fillColor=#fff2cc;align=left;verticalAlign=middle;spacingLeft=4;spacingRight=4;overflow=hidden;points=[[0,0.5],[1,0.5]];portConstraint=eastwest;rotatable=0;whiteSpace=wrap;html=1;" parent="wgxEwu4ZSYYzqAatA0k3-16" vertex="1">
          <mxGeometry y="310" width="200" height="30" as="geometry" />
        </mxCell>
        <mxCell id="wgxEwu4ZSYYzqAatA0k3-20" value="create_time 创建时间" style="text;strokeColor=#d6b656;fillColor=#fff2cc;align=left;verticalAlign=middle;spacingLeft=4;spacingRight=4;overflow=hidden;points=[[0,0.5],[1,0.5]];portConstraint=eastwest;rotatable=0;whiteSpace=wrap;html=1;" parent="wgxEwu4ZSYYzqAatA0k3-16" vertex="1">
          <mxGeometry y="340" width="200" height="30" as="geometry" />
        </mxCell>
        <mxCell id="wgxEwu4ZSYYzqAatA0k3-21" value="update_time 更新时间" style="text;strokeColor=#d6b656;fillColor=#fff2cc;align=left;verticalAlign=middle;spacingLeft=4;spacingRight=4;overflow=hidden;points=[[0,0.5],[1,0.5]];portConstraint=eastwest;rotatable=0;whiteSpace=wrap;html=1;" parent="wgxEwu4ZSYYzqAatA0k3-16" vertex="1">
          <mxGeometry y="370" width="200" height="30" as="geometry" />
        </mxCell>
        <mxCell id="4E-08I21KCYoqC6haHJX-5" value="&lt;h3&gt;strategy_rule&amp;nbsp;策略规则&lt;/h3&gt;" style="swimlane;fontStyle=0;childLayout=stackLayout;horizontal=1;startSize=30;horizontalStack=0;resizeParent=1;resizeParentMax=0;resizeLast=0;collapsible=1;marginBottom=0;whiteSpace=wrap;html=1;fillColor=#ffe6cc;strokeColor=#d79b00;" parent="1" vertex="1">
          <mxGeometry x="610" y="600" width="160" height="300" as="geometry">
            <mxRectangle x="330" y="680" width="130" height="30" as="alternateBounds" />
          </mxGeometry>
        </mxCell>
        <mxCell id="4E-08I21KCYoqC6haHJX-6" value="id 自增ID" style="text;strokeColor=#d6b656;fillColor=#fff2cc;align=left;verticalAlign=middle;spacingLeft=4;spacingRight=4;overflow=hidden;points=[[0,0.5],[1,0.5]];portConstraint=eastwest;rotatable=0;whiteSpace=wrap;html=1;" parent="4E-08I21KCYoqC6haHJX-5" vertex="1">
          <mxGeometry y="30" width="160" height="30" as="geometry" />
        </mxCell>
        <mxCell id="4E-08I21KCYoqC6haHJX-7" value="strategy_id 抽奖策略ID" style="text;strokeColor=#d6b656;fillColor=#fff2cc;align=left;verticalAlign=middle;spacingLeft=4;spacingRight=4;overflow=hidden;points=[[0,0.5],[1,0.5]];portConstraint=eastwest;rotatable=0;whiteSpace=wrap;html=1;" parent="4E-08I21KCYoqC6haHJX-5" vertex="1">
          <mxGeometry y="60" width="160" height="30" as="geometry" />
        </mxCell>
        <mxCell id="4E-08I21KCYoqC6haHJX-8" value="award_id 抽奖奖品ID" style="text;strokeColor=#d6b656;fillColor=#fff2cc;align=left;verticalAlign=middle;spacingLeft=4;spacingRight=4;overflow=hidden;points=[[0,0.5],[1,0.5]];portConstraint=eastwest;rotatable=0;whiteSpace=wrap;html=1;" parent="4E-08I21KCYoqC6haHJX-5" vertex="1">
          <mxGeometry y="90" width="160" height="30" as="geometry" />
        </mxCell>
        <mxCell id="4E-08I21KCYoqC6haHJX-11" value="rule_type 抽象规则类型" style="text;strokeColor=#d6b656;fillColor=#fff2cc;align=left;verticalAlign=middle;spacingLeft=4;spacingRight=4;overflow=hidden;points=[[0,0.5],[1,0.5]];portConstraint=eastwest;rotatable=0;whiteSpace=wrap;html=1;" parent="4E-08I21KCYoqC6haHJX-5" vertex="1">
          <mxGeometry y="120" width="160" height="30" as="geometry" />
        </mxCell>
        <mxCell id="4E-08I21KCYoqC6haHJX-12" value="rule_model 抽奖规则类型" style="text;strokeColor=#d6b656;fillColor=#fff2cc;align=left;verticalAlign=middle;spacingLeft=4;spacingRight=4;overflow=hidden;points=[[0,0.5],[1,0.5]];portConstraint=eastwest;rotatable=0;whiteSpace=wrap;html=1;" parent="4E-08I21KCYoqC6haHJX-5" vertex="1">
          <mxGeometry y="150" width="160" height="30" as="geometry" />
        </mxCell>
        <mxCell id="4E-08I21KCYoqC6haHJX-13" value="rule_value 抽奖规则比值" style="text;strokeColor=#d6b656;fillColor=#fff2cc;align=left;verticalAlign=middle;spacingLeft=4;spacingRight=4;overflow=hidden;points=[[0,0.5],[1,0.5]];portConstraint=eastwest;rotatable=0;whiteSpace=wrap;html=1;" parent="4E-08I21KCYoqC6haHJX-5" vertex="1">
          <mxGeometry y="180" width="160" height="30" as="geometry" />
        </mxCell>
        <mxCell id="4E-08I21KCYoqC6haHJX-14" value="rule_desc 抽奖规则描述" style="text;strokeColor=#d6b656;fillColor=#fff2cc;align=left;verticalAlign=middle;spacingLeft=4;spacingRight=4;overflow=hidden;points=[[0,0.5],[1,0.5]];portConstraint=eastwest;rotatable=0;whiteSpace=wrap;html=1;" parent="4E-08I21KCYoqC6haHJX-5" vertex="1">
          <mxGeometry y="210" width="160" height="30" as="geometry" />
        </mxCell>
        <mxCell id="4E-08I21KCYoqC6haHJX-9" value="create_time 创建时间" style="text;strokeColor=#d6b656;fillColor=#fff2cc;align=left;verticalAlign=middle;spacingLeft=4;spacingRight=4;overflow=hidden;points=[[0,0.5],[1,0.5]];portConstraint=eastwest;rotatable=0;whiteSpace=wrap;html=1;" parent="4E-08I21KCYoqC6haHJX-5" vertex="1">
          <mxGeometry y="240" width="160" height="30" as="geometry" />
        </mxCell>
        <mxCell id="4E-08I21KCYoqC6haHJX-10" value="update_time 更新时间" style="text;strokeColor=#d6b656;fillColor=#fff2cc;align=left;verticalAlign=middle;spacingLeft=4;spacingRight=4;overflow=hidden;points=[[0,0.5],[1,0.5]];portConstraint=eastwest;rotatable=0;whiteSpace=wrap;html=1;" parent="4E-08I21KCYoqC6haHJX-5" vertex="1">
          <mxGeometry y="270" width="160" height="30" as="geometry" />
        </mxCell>
      </root>
    </mxGraphModel>
  </diagram>
  <diagram id="9f5FPc_qTV2l7ZcLlfar" name="活动领域">
    <mxGraphModel dx="765" dy="536" grid="0" gridSize="10" guides="1" tooltips="1" connect="1" arrows="1" fold="1" page="1" pageScale="1" pageWidth="827" pageHeight="1169" math="0" shadow="0">
      <root>
        <mxCell id="0" />
        <mxCell id="1" parent="0" />
        <mxCell id="xSEm9HzR8aMYrc4969_i-27" value="" style="group" vertex="1" connectable="0" parent="1">
          <mxGeometry x="184" y="138" width="373" height="205" as="geometry" />
        </mxCell>
        <mxCell id="xSEm9HzR8aMYrc4969_i-9" value="raffle_activity_count&lt;div&gt;抽奖次数&lt;/div&gt;" style="rounded=1;whiteSpace=wrap;html=1;fillColor=#dae8fc;strokeColor=#6c8ebf;" vertex="1" parent="xSEm9HzR8aMYrc4969_i-27">
          <mxGeometry y="153" width="120" height="52" as="geometry" />
        </mxCell>
        <mxCell id="xSEm9HzR8aMYrc4969_i-10" value="raffle_acyivity&lt;div&gt;抽奖活动&lt;/div&gt;" style="rounded=1;whiteSpace=wrap;html=1;fillColor=#dae8fc;strokeColor=#6c8ebf;" vertex="1" parent="xSEm9HzR8aMYrc4969_i-27">
          <mxGeometry x="253" y="4" width="120" height="52" as="geometry" />
        </mxCell>
        <mxCell id="xSEm9HzR8aMYrc4969_i-22" value="raffle_activity_sku" style="rounded=1;whiteSpace=wrap;html=1;fillColor=#dae8fc;strokeColor=#6c8ebf;" vertex="1" parent="xSEm9HzR8aMYrc4969_i-27">
          <mxGeometry width="120" height="60" as="geometry" />
        </mxCell>
        <mxCell id="xSEm9HzR8aMYrc4969_i-23" value="" style="endArrow=classic;startArrow=classic;html=1;rounded=0;exitX=0;exitY=0.5;exitDx=0;exitDy=0;entryX=1;entryY=0.5;entryDx=0;entryDy=0;" edge="1" parent="xSEm9HzR8aMYrc4969_i-27" source="xSEm9HzR8aMYrc4969_i-10" target="xSEm9HzR8aMYrc4969_i-22">
          <mxGeometry width="50" height="50" relative="1" as="geometry">
            <mxPoint x="207" y="37" as="sourcePoint" />
            <mxPoint x="128" y="26" as="targetPoint" />
          </mxGeometry>
        </mxCell>
        <mxCell id="xSEm9HzR8aMYrc4969_i-24" value="raffle_activioty_id" style="edgeLabel;html=1;align=center;verticalAlign=middle;resizable=0;points=[];" vertex="1" connectable="0" parent="xSEm9HzR8aMYrc4969_i-23">
          <mxGeometry x="-0.0909" y="-2" relative="1" as="geometry">
            <mxPoint as="offset" />
          </mxGeometry>
        </mxCell>
        <mxCell id="xSEm9HzR8aMYrc4969_i-25" value="" style="endArrow=classic;startArrow=classic;html=1;rounded=0;entryX=0.325;entryY=0.975;entryDx=0;entryDy=0;entryPerimeter=0;exitX=0.329;exitY=-0.087;exitDx=0;exitDy=0;exitPerimeter=0;" edge="1" parent="xSEm9HzR8aMYrc4969_i-27" source="xSEm9HzR8aMYrc4969_i-9" target="xSEm9HzR8aMYrc4969_i-22">
          <mxGeometry width="50" height="50" relative="1" as="geometry">
            <mxPoint x="-101" y="165" as="sourcePoint" />
            <mxPoint x="-51" y="115" as="targetPoint" />
          </mxGeometry>
        </mxCell>
        <mxCell id="xSEm9HzR8aMYrc4969_i-26" value="raffle_activity_count_id" style="edgeLabel;html=1;align=center;verticalAlign=middle;resizable=0;points=[];" vertex="1" connectable="0" parent="xSEm9HzR8aMYrc4969_i-25">
          <mxGeometry x="0.0104" y="-3" relative="1" as="geometry">
            <mxPoint as="offset" />
          </mxGeometry>
        </mxCell>
      </root>
    </mxGraphModel>
  </diagram>
</mxfile>
